# xmcd
#
# Track frame offsets:
#	150
#	23607
#	45907
#	73060
#	94032
#	117117
#	136727
#	165697
#	188237
#	207020
#
# Disc length: 3067 seconds
#
# Revision: 4293591027
# Processed by: cddbd v1.5.2PL0 Copyright (c) Steve Scherf et al.
# Submitted via: EZCDAudioConverter 8.0.2.1
#
DISCID=790bf90a
DTITLE=Ngọc Hạ, Thái Hòa - Khắc Khoải, Buồn Tàn Thu
DYEAR=2002
DGENRE=Miscellaneous
TTITLE0=Ngọc Hạ - Mái đình làng biển
TTITLE1=Trần Thái Hòa - Xóm đêm
TTITLE2=Ngọc Hạ - Buồn Tàn Thu
TTITLE3=Trần Thái Hòa - Mắt buồn
TTITLE4=Ngọc Hạ - Em tôi
TTITLE5=Trần Thái Hòa - Ðường về miền Bắc
TTITLE6=Ngọc Hạ - Mình ơi
TTITLE7=Trần Thái Hòa - Khắc Khoải
TTITLE8=Trần Thái Hòa - Thu trong mắt em
TTITLE9=Ngọc Hạ - Từ giọng hát em
EXTD=
EXTT0=
EXTT1=
EXTT2=
EXTT3=
EXTT4=
EXTT5=
EXTT6=
EXTT7=
EXTT8=
EXTT9=
PLAYORDER=
